<?xml version="1.0" encoding="utf-8"?>
<!-- Generator: Adobe Illustrator 22.1.0, SVG Export Plug-In . SVG Version: 6.00 Build 0)  -->
<svg version="1.1" id="Layer_1" xmlns="http://www.w3.org/2000/svg" xmlns:xlink="http://www.w3.org/1999/xlink" x="0px" y="0px"
	 viewBox="0 0 117.7 117.7" style="enable-background:new 0 0 117.7 117.7;" xml:space="preserve">
<style type="text/css">
	.st0{clip-path:url(#SVGID_3_);}
	.st1{fill:#FFFFFF;}
	.st2{fill-rule:evenodd;clip-rule:evenodd;fill:#1D99EE;}
	.st3{fill:#1677F0;}
	.st4{fill:url(#SVGID_6_);}
	.st5{fill-rule:evenodd;clip-rule:evenodd;fill:#FFFFFF;}
	.st6{fill:#27CD44;}
	.st7{fill:url(#SVGID_7_);}
	.st8{fill:#1D99EE;}
	.st9{fill-rule:evenodd;clip-rule:evenodd;fill:#27CD44;}
	.st10{fill:url(#SVGID_8_);}
	.st11{fill:url(#SVGID_9_);}
	.st12{fill:url(#SVGID_10_);}
</style>
<g>
	<linearGradient id="SVGID_2_" gradientUnits="userSpaceOnUse" x1="41.7498" y1="120.4656" x2="80.8708" y2="-20.5048">
		<stop  offset="0" style="stop-color:#FFDB71"/>
		<stop  offset="0.3241" style="stop-color:#FF732B"/>
		<stop  offset="0.6709" style="stop-color:#E01B9A"/>
		<stop  offset="1" style="stop-color:#4A56DB"/>
	</linearGradient>
	<path style="fill:url(#SVGID_2_);" d="M102.4,117.7H15.3c-8.4,0-15.3-6.8-15.3-15.3V15.3C0,6.8,6.8,0,15.3,0h87.1
		c8.4,0,15.3,6.8,15.3,15.3v87.1C117.7,110.9,110.9,117.7,102.4,117.7z"/>
	<g>
		<g>
			<path class="st1" d="M58.8,24c11.3,0,12.7,0,17.2,0.2c4.1,0.2,6.4,0.9,7.9,1.5c2,0.8,3.4,1.7,4.9,3.2c1.5,1.5,2.4,2.9,3.2,4.9
				c0.6,1.5,1.3,3.7,1.5,7.9c0.2,4.5,0.2,5.8,0.2,17.2s0,12.7-0.2,17.2c-0.2,4.1-0.9,6.4-1.5,7.9c-0.8,2-1.7,3.4-3.2,4.9
				c-1.5,1.5-2.9,2.4-4.9,3.2c-1.5,0.6-3.7,1.3-7.9,1.5c-4.5,0.2-5.8,0.2-17.2,0.2c-11.3,0-12.7,0-17.2-0.2
				c-4.1-0.2-6.4-0.9-7.9-1.5c-2-0.8-3.4-1.7-4.9-3.2c-1.5-1.5-2.4-2.9-3.2-4.9c-0.6-1.5-1.3-3.7-1.5-7.9c-0.2-4.5-0.2-5.8-0.2-17.2
				s0-12.7,0.2-17.2c0.2-4.1,0.9-6.4,1.5-7.9c0.8-2,1.7-3.4,3.2-4.9c1.5-1.5,2.9-2.4,4.9-3.2c1.5-0.6,3.7-1.3,7.9-1.5
				C46.2,24.1,47.5,24,58.8,24 M58.8,16.3c-11.5,0-13,0-17.5,0.3c-4.5,0.2-7.6,0.9-10.3,2c-2.8,1.1-5.2,2.5-7.5,4.9
				c-2.4,2.4-3.8,4.7-4.9,7.5c-1.1,2.7-1.8,5.8-2,10.3c-0.2,4.5-0.3,6-0.3,17.5c0,11.5,0,13,0.3,17.5c0.2,4.5,0.9,7.6,2,10.3
				c1.1,2.8,2.5,5.2,4.9,7.5c2.4,2.4,4.7,3.8,7.5,4.9c2.7,1.1,5.8,1.8,10.3,2c4.5,0.2,6,0.3,17.5,0.3c11.5,0,13,0,17.5-0.3
				c4.5-0.2,7.6-0.9,10.3-2c2.8-1.1,5.2-2.5,7.5-4.9c2.4-2.4,3.8-4.7,4.9-7.5c1.1-2.7,1.8-5.8,2-10.3c0.2-4.5,0.3-6,0.3-17.5
				s0-13-0.3-17.5c-0.2-4.5-0.9-7.6-2-10.3c-1.1-2.8-2.5-5.2-4.9-7.5c-2.4-2.4-4.7-3.8-7.5-4.9c-2.7-1.1-5.8-1.8-10.3-2
				C71.8,16.4,70.4,16.3,58.8,16.3L58.8,16.3z"/>
			<path class="st1" d="M58.8,37C46.8,37,37,46.8,37,58.8s9.8,21.8,21.8,21.8c12.1,0,21.8-9.8,21.8-21.8S70.9,37,58.8,37z M58.8,73
				c-7.8,0-14.2-6.3-14.2-14.2S51,44.7,58.8,44.7S73,51,73,58.8S66.7,73,58.8,73z"/>
			<circle class="st1" cx="81.5" cy="36.2" r="5.1"/>
		</g>
	</g>
</g>
</svg>
